<svg width="200" height="200" viewBox="0 0 200 200" fill="none" xmlns="http://www.w3.org/2000/svg">
  <!-- Gradient Background -->
  <defs>
    <linearGradient id="bgGradient" x1="0%" y1="0%" x2="100%" y2="100%">
      <stop offset="0%" stop-color="#0047B3" />
      <stop offset="100%" stop-color="#0066FF" />
    </linearGradient>
    <filter id="glow" x="-20%" y="-20%" width="140%" height="140%">
      <feGaussianBlur stdDeviation="5" result="blur" />
      <feComposite in="SourceGraphic" in2="blur" operator="over" />
    </filter>
  </defs>
  
  <!-- Circular Background -->
  <circle cx="100" cy="100" r="90" fill="url(#bgGradient)" />
  
  <!-- Outer Ring (Token/Blockchain) -->
  <circle cx="100" cy="100" r="85" stroke="white" stroke-width="2" stroke-dasharray="5,3" fill="none" />
  
  <!-- Book Base -->
  <path d="M60 70 L140 70 L140 130 L60 130 C55 130 50 125 50 120 L50 80 C50 75 55 70 60 70 Z" fill="#FFFFFF" />
  
  <!-- Book Pages -->
  <path d="M60 70 L140 70 L140 130 L60 130 C60 125 60 120 60 115 L60 70 Z" fill="#F0F7FF" />
  
  <!-- Book Spine -->
  <path d="M60 70 L50 80 L50 120 L60 130 L60 70 Z" fill="#D2D9E7" />
  
  <!-- Light Beam (Interactive Storytelling) -->
  <path d="M100 85 L85 140 L115 140 Z" fill="rgba(255,255,255,0.7)" filter="url(#glow)" />
  
  <!-- Character Silhouettes -->
  <circle cx="100" cy="95" r="8" fill="#0066FF" />
  <path d="M90 110 L85 140 L95 140 Z" fill="#0066FF" opacity="0.8" />
  <path d="M110 110 L105 140 L115 140 Z" fill="#0066FF" opacity="0.8" />
  
  <!-- Branching Paths (Interactive Choices) -->
  <path d="M100 95 L80 120 L70 140" stroke="white" stroke-width="1.5" fill="none" />
  <path d="M100 95 L120 120 L130 140" stroke="white" stroke-width="1.5" fill="none" />
  
  <!-- Nodes (Choice Points) -->
  <circle cx="70" cy="140" r="4" fill="#E34D97" />
  <circle cx="130" cy="140" r="4" fill="#E34D97" />
</svg> 